<svg xmlns="http://www.w3.org/2000/svg" xmlns:xlink="http://www.w3.org/1999/xlink" width="500" zoomAndPan="magnify" viewBox="0 0 375 374.999991" height="500" preserveAspectRatio="xMidYMid meet" version="1.0"><defs><clipPath id="df92c9a13d"><path d="M 37.5 37.5 L 337.5 37.5 L 337.5 337.5 L 37.5 337.5 Z M 37.5 37.5 " clip-rule="nonzero"/></clipPath><clipPath id="6d661eec11"><path d="M 187.5 37.5 C 104.65625 37.5 37.5 104.65625 37.5 187.5 C 37.5 270.34375 104.65625 337.5 187.5 337.5 C 270.34375 337.5 337.5 270.34375 337.5 187.5 C 337.5 104.65625 270.34375 37.5 187.5 37.5 " clip-rule="nonzero"/></clipPath><clipPath id="d6fb390baf"><path d="M 131 318 L 236.671875 318 L 236.671875 337.5 L 131 337.5 Z M 131 318 " clip-rule="nonzero"/></clipPath><clipPath id="88ce09a412"><path d="M 169.210938 324 L 236.671875 324 L 236.671875 337.5 L 169.210938 337.5 Z M 169.210938 324 " clip-rule="nonzero"/></clipPath><clipPath id="563caef3a0"><path d="M 116 146 L 250.914062 146 L 250.914062 337.5 L 116 337.5 Z M 116 146 " clip-rule="nonzero"/></clipPath><clipPath id="a81a6fde4e"><path d="M 217.183594 274 L 241.917969 274 L 241.917969 337.5 L 217.183594 337.5 Z M 217.183594 274 " clip-rule="nonzero"/></clipPath></defs><rect x="-37.5" width="450" fill="#ffffff" y="-37.499999" height="449.999989" fill-opacity="1"/><rect x="-37.5" width="450" fill="#ffffff" y="-37.499999" height="449.999989" fill-opacity="1"/><rect x="-37.5" width="450" fill="#ffffff" y="-37.499999" height="449.999989" fill-opacity="1"/><g clip-path="url(#df92c9a13d)"><g clip-path="url(#6d661eec11)"><path fill="#b21a20" d="M 37.5 37.5 L 337.5 37.5 L 337.5 337.5 L 37.5 337.5 Z M 37.5 37.5 " fill-opacity="1" fill-rule="nonzero"/></g></g><g clip-path="url(#d6fb390baf)"><path fill="#292a2b" d="M 236.363281 337.5 L 236.664062 318.375 L 183.769531 328.9375 L 182.796875 318.375 L 131.523438 328.613281 L 131.453125 337.5 L 236.363281 337.5 " fill-opacity="1" fill-rule="nonzero"/></g><g clip-path="url(#88ce09a412)"><path fill="#171717" d="M 236.359375 337.5 L 236.457031 331.382812 L 206.042969 324.488281 L 183.957031 328.894531 L 169.71875 337.5 L 236.359375 337.5 " fill-opacity="1" fill-rule="nonzero"/></g><g clip-path="url(#563caef3a0)"><path fill="#4c4e51" d="M 127.699219 264.632812 L 132.183594 268.410156 C 132.183594 268.410156 127.238281 274.875 131.289062 278.730469 C 131.289062 278.730469 129.34375 286.050781 130.917969 291.402344 C 130.917969 291.402344 127.792969 316.039062 125.28125 337.5 L 241.714844 337.5 C 240.5625 324.203125 238.757812 309.1875 236.007812 298.511719 C 236.007812 298.511719 241.582031 287.265625 236.898438 283.292969 L 239.203125 272.824219 L 237.132812 263.585938 C 240.953125 257.710938 237.132812 248.472656 237.132812 248.472656 C 248.789062 214.453125 250.867188 163.214844 250.867188 163.214844 C 248.765625 161.574219 245.078125 159.511719 245.078125 159.511719 C 231.1875 153.839844 185.460938 146.4375 185.460938 146.4375 C 168.785156 145.179688 121.570312 160.667969 121.570312 160.667969 C 118.101562 161.480469 116.476562 165.765625 116.476562 165.765625 C 116.476562 165.765625 124.226562 232.199219 130.917969 250.148438 L 127.699219 264.632812 " fill-opacity="1" fill-rule="nonzero"/></g><g clip-path="url(#a81a6fde4e)"><path fill="#3e4042" d="M 241.714844 337.5 C 240.5625 324.203125 238.757812 309.1875 236.007812 298.511719 C 236.007812 298.511719 241.582031 287.265625 236.898438 283.292969 L 238.898438 274.214844 L 218.332031 275.699219 L 223.101562 291.71875 L 218.332031 298.511719 L 218.332031 334.539062 L 217.300781 337.5 L 241.714844 337.5 " fill-opacity="1" fill-rule="nonzero"/></g><path fill="#3e4042" d="M 188.988281 224.664062 L 185.460938 225.925781 C 188.382812 227.285156 195.285156 234.558594 195.285156 234.558594 L 192.0625 229.40625 L 220.132812 194.515625 L 218.332031 187.585938 L 228.652344 188.398438 L 222.144531 153.316406 C 220.214844 152.898438 218.25 152.488281 216.296875 152.089844 L 188.988281 224.664062 " fill-opacity="1" fill-rule="nonzero"/><path fill="#2d2e30" d="M 127.710938 264.640625 L 132.183594 268.410156 C 132.183594 268.410156 127.238281 274.875 131.289062 278.730469 C 131.289062 278.730469 129.34375 286.050781 130.917969 291.402344 C 130.917969 291.402344 130.902344 291.53125 130.882812 291.71875 L 140.988281 291.71875 C 140.988281 291.71875 177.734375 290.039062 186.992188 284.996094 L 199.765625 284.996094 C 199.765625 284.996094 221.242188 287.871094 238.652344 290 C 238.976562 287.390625 238.6875 284.808594 236.898438 283.292969 L 239.203125 272.824219 L 237.503906 265.246094 L 157.664062 259.683594 L 127.710938 264.640625 " fill-opacity="1" fill-rule="nonzero"/><path fill="#ffffff" d="M 158.84375 259.683594 L 157.664062 237.863281 L 165.003906 237.863281 L 166.136719 259.683594 L 158.84375 259.683594 " fill-opacity="1" fill-rule="nonzero"/><path fill="#fabc87" d="M 123.035156 250.570312 L 137.707031 235.164062 C 137.707031 235.164062 143.691406 232.597656 151.636719 238.050781 C 151.636719 238.050781 156.367188 240.628906 158.183594 240.597656 C 158.183594 240.597656 160.386719 258.089844 157.277344 266.507812 C 157.277344 266.507812 123.453125 263.585938 123.035156 250.570312 " fill-opacity="1" fill-rule="nonzero"/><path fill="#ffffff" d="M 158.660156 149.460938 C 158.660156 149.460938 162.316406 190.960938 187.789062 224.011719 C 187.789062 224.011719 200.246094 198.035156 213.285156 150.757812 L 158.660156 149.460938 " fill-opacity="1" fill-rule="nonzero"/><path fill="#c3e3e4" d="M 204.722656 179.34375 L 193.304688 166.382812 L 190.601562 169.671875 L 197.664062 205.851562 L 188.988281 219.910156 L 185.1875 163.214844 L 192.0625 156.882812 L 192.675781 156.882812 L 205.71875 175.410156 L 204.722656 179.34375 " fill-opacity="1" fill-rule="nonzero"/><path fill="#e09e6e" d="M 161.402344 117.390625 C 161.402344 117.390625 167.550781 138.957031 161.863281 151.199219 C 161.863281 151.199219 182.257812 167.609375 208.441406 152.9375 C 208.441406 152.9375 203.269531 130.597656 207.863281 117.390625 L 161.402344 117.390625 " fill-opacity="1" fill-rule="nonzero"/><path fill="#d5a585" d="M 207.597656 148.636719 C 207.226562 146.503906 206.800781 143.710938 206.476562 140.59375 C 206.804688 143.714844 207.230469 146.503906 207.601562 148.636719 L 207.597656 148.636719 M 163.746094 129.539062 C 163.746094 129.535156 163.742188 129.535156 163.738281 129.535156 C 163.390625 126.695312 162.9375 124.144531 162.515625 122.105469 L 162.515625 122.089844 C 162.9375 124.132812 163.402344 126.703125 163.746094 129.539062 " fill-opacity="1" fill-rule="nonzero"/><path fill="#cd8c63" d="M 186.503906 159.027344 C 189.972656 154.1875 192.0625 143.714844 192.0625 143.714844 C 190.539062 144.921875 188.808594 145.210938 187.5 145.210938 C 186.304688 145.210938 185.460938 144.96875 185.460938 144.96875 C 181.667969 144.460938 168.609375 133.65625 163.746094 129.539062 C 163.402344 126.703125 162.9375 124.132812 162.515625 122.089844 L 163.003906 117.390625 L 207.863281 117.390625 C 205.507812 124.148438 205.714844 133.28125 206.476562 140.59375 C 206.800781 143.710938 207.226562 146.503906 207.597656 148.636719 L 194.433594 158.222656 C 191.660156 158.777344 189.011719 159.015625 186.503906 159.027344 " fill-opacity="1" fill-rule="nonzero"/><path fill="#fabc87" d="M 152.425781 93.796875 C 152.425781 93.796875 149.289062 86.484375 145.546875 92.953125 C 145.546875 92.953125 142.042969 100.148438 148.976562 105.804688 C 148.976562 105.804688 151.878906 108.804688 152.425781 109.71875 C 152.425781 109.71875 155.734375 113.046875 157.277344 109.71875 L 152.425781 93.796875 " fill-opacity="1" fill-rule="nonzero"/><path fill="#fabc87" d="M 219.5625 93.796875 C 219.5625 93.796875 222.683594 86.484375 226.433594 92.953125 C 226.433594 92.953125 229.917969 100.148438 223.003906 105.804688 C 223.003906 105.804688 220.09375 108.804688 219.5625 109.71875 C 219.5625 109.71875 216.238281 113.046875 214.691406 109.71875 L 219.5625 93.796875 " fill-opacity="1" fill-rule="nonzero"/><path fill="#eda672" d="M 219.5625 93.796875 C 219.5625 93.796875 222.683594 86.484375 226.433594 92.953125 C 226.433594 92.953125 229.917969 100.148438 223.003906 105.804688 C 223.003906 105.804688 220.09375 108.804688 219.5625 109.71875 C 219.5625 109.71875 216.238281 113.046875 214.691406 109.71875 L 219.5625 93.796875 " fill-opacity="1" fill-rule="nonzero"/><path fill="#c5855f" d="M 226.34375 96.3125 C 226.34375 96.3125 223.167969 91.363281 220.886719 94.390625 C 220.886719 94.390625 219.082031 99.894531 219.324219 100.742188 C 219.324219 100.742188 219.875 103.636719 218.136719 104.5 C 218.136719 104.5 215.984375 107.277344 216.71875 109.144531 C 216.71875 109.144531 218.988281 109.144531 219.746094 107.652344 C 219.746094 107.652344 217.898438 107.257812 219.003906 105.445312 C 219.003906 105.445312 222.167969 103.003906 221.453125 99.855469 C 221.453125 99.855469 222.316406 96.234375 223.664062 99.152344 C 223.664062 99.152344 224.457031 98.035156 223.261719 95.765625 C 223.261719 95.765625 225.488281 95.449219 226.34375 96.3125 " fill-opacity="1" fill-rule="nonzero"/><path fill="#fabc87" d="M 220.132812 94.398438 C 220.132812 67.015625 205.027344 48.214844 186.324219 47.9375 C 186.25 47.9375 186.183594 47.9375 186.125 47.9375 C 186.050781 47.9375 185.992188 47.9375 185.917969 47.9375 C 167.210938 48.214844 152.109375 67.015625 152.109375 94.398438 C 152.109375 94.398438 159.816406 140.226562 185.917969 140.84375 C 185.992188 140.84375 186.050781 140.84375 186.125 140.84375 C 186.183594 140.84375 186.25 140.84375 186.324219 140.84375 C 212.429688 140.226562 220.132812 94.398438 220.132812 94.398438 " fill-opacity="1" fill-rule="nonzero"/><path fill="#eda672" d="M 190.371094 140.339844 C 213.222656 135.402344 220.132812 94.398438 220.132812 94.398438 C 220.132812 70.648438 208.757812 53.378906 193.546875 49.023438 L 182.613281 49.023438 C 182.613281 49.023438 163.425781 55.539062 163.003906 70.96875 C 163.003906 70.96875 170.800781 67.710938 174.585938 69.597656 C 174.585938 69.597656 191.621094 76.109375 198.773438 72.121094 C 198.773438 72.121094 201.085938 84.925781 205.503906 87.652344 C 205.503906 87.652344 210.136719 94.300781 210.347656 100.742188 C 210.347656 100.742188 209.226562 129.3125 190.371094 140.339844 " fill-opacity="1" fill-rule="nonzero"/><path fill="#ffffff" d="M 158.660156 149.460938 C 158.660156 149.460938 161.652344 137.882812 164.273438 137.882812 L 183.753906 157.71875 L 188.804688 157.71875 L 210.210938 137.484375 C 210.210938 137.484375 214.074219 138.214844 211.863281 146.457031 L 205.085938 174.988281 L 189.417969 158.914062 L 183.234375 158.726562 L 178.578125 166.910156 L 165.773438 176.28125 L 158.660156 149.460938 " fill-opacity="1" fill-rule="nonzero"/><path fill="#b21d23" d="M 183.753906 157.71875 L 180.507812 164.023438 L 183.753906 169.671875 L 186.660156 169.671875 L 186.660156 157.71875 L 183.753906 157.71875 " fill-opacity="1" fill-rule="nonzero"/><path fill="#b21d23" d="M 188.804688 157.71875 L 192.0625 164.023438 L 188.804688 169.671875 L 185.917969 169.671875 L 185.917969 157.71875 L 188.804688 157.71875 " fill-opacity="1" fill-rule="nonzero"/><path fill="#b21d23" d="M 183.699219 169.671875 L 179.480469 215.0625 L 186.992188 224.011719 L 186.601562 169.671875 L 183.699219 169.671875 " fill-opacity="1" fill-rule="nonzero"/><path fill="#b21d23" d="M 188.804688 169.671875 L 195.285156 215.0625 L 186.535156 225.207031 L 185.917969 169.671875 L 188.804688 169.671875 " fill-opacity="1" fill-rule="nonzero"/><path fill="#2d2e30" d="M 220.132812 152.035156 L 223.101562 180.925781 L 203.253906 183.78125 L 202.351562 181.992188 L 212.527344 142.660156 L 214.074219 142.660156 L 220.132812 152.035156 " fill-opacity="1" fill-rule="nonzero"/><path fill="#2d2e30" d="M 154.378906 150.636719 L 149.6875 181.125 L 169.074219 183.78125 L 169.625 181.890625 L 160.46875 143.714844 L 154.378906 150.636719 " fill-opacity="1" fill-rule="nonzero"/><path fill="#2d2e30" d="M 163.964844 171.832031 L 158.183594 190.6875 C 158.183594 190.6875 178.476562 226.144531 190.984375 230.734375 C 190.984375 230.734375 167.664062 181.867188 163.964844 171.832031 " fill-opacity="1" fill-rule="nonzero"/><path fill="#2d2e30" d="M 186.375 226.933594 C 185.539062 225.863281 186.429688 226.972656 186.582031 227.125 C 186.777344 227.363281 186.976562 227.5625 187.164062 227.78125 C 187.570312 228.207031 187.996094 228.605469 188.441406 229.011719 C 188.574219 229.148438 188.738281 229.265625 188.882812 229.40625 C 201.027344 221.140625 214.074219 190.292969 214.074219 190.292969 L 207.609375 171.027344 C 205.121094 177.863281 193.570312 214.578125 185.460938 225.925781 C 185.777344 226.257812 186.097656 226.589844 186.375 226.933594 " fill-opacity="1" fill-rule="nonzero"/><path fill="#1f2021" d="M 150.972656 91.515625 L 153.953125 102.410156 L 157.277344 100.042969 C 157.277344 100.042969 156.601562 92.480469 157.277344 86.1875 C 157.277344 86.1875 161.324219 80.601562 165.320312 68.484375 C 165.320312 68.484375 172.476562 64.558594 177.3125 66.238281 C 177.3125 66.238281 190.566406 71.277344 197.929688 67.078125 C 197.929688 67.078125 202.980469 66.117188 204.035156 68.484375 C 204.035156 68.484375 206.558594 82.195312 210.558594 86.394531 C 210.558594 86.394531 213.386719 89.964844 214.074219 93.320312 L 214.074219 99.832031 L 217.855469 102.410156 C 217.855469 102.410156 220.296875 95.835938 220.132812 92.707031 C 220.132812 92.707031 224.890625 72.703125 216.34375 57.796875 C 216.34375 57.796875 211.609375 53.226562 209.714844 49.234375 C 207.820312 45.246094 204.875 42.519531 201.296875 43.777344 C 201.296875 43.777344 191.148438 37.476562 186.121094 40.207031 C 186.121094 40.207031 178.375 42.308594 174.585938 41.46875 C 170.792969 40.628906 168.058594 39.523438 164.269531 42.9375 C 164.269531 42.9375 153.328125 47.9375 153.328125 55.742188 C 153.328125 55.742188 151.515625 62.460938 149.6875 63.511719 C 149.6875 63.511719 141.675781 71.488281 144.664062 77.578125 C 144.664062 77.578125 144.804688 85.105469 150.972656 91.515625 " fill-opacity="1" fill-rule="nonzero"/><path fill="#4c4e51" d="M 106.410156 171.527344 L 107.460938 181.078125 C 107.460938 181.078125 101.136719 221.179688 106.089844 232.136719 L 102.953125 237.125 C 102.953125 237.125 105.472656 245.386719 102.953125 247.273438 C 102.953125 247.273438 101.6875 256.597656 102.953125 259.808594 C 102.953125 259.808594 107.335938 273.605469 109.613281 279.90625 C 109.613281 279.90625 115.703125 283.378906 121.582031 284.996094 C 121.582031 284.996094 152.109375 292.558594 199.765625 268.207031 C 199.765625 268.207031 192.015625 257.59375 186.992188 248.773438 C 186.992188 248.773438 139.496094 248.214844 131.921875 252.410156 L 130.222656 240.125 L 133.964844 234.558594 C 133.964844 234.558594 132.710938 219.5 133.964844 212.363281 C 133.964844 212.363281 136.078125 187.578125 131.449219 171.832031 C 131.449219 171.832031 123.210938 163.542969 116.476562 163.214844 L 106.410156 171.527344 " fill-opacity="1" fill-rule="nonzero"/><path fill="#4c4e51" d="M 165.738281 252.105469 C 162.023438 251.289062 165.449219 233.144531 165.449219 233.144531 C 165.449219 233.144531 205.863281 236.78125 221.5 242.628906 L 227.179688 242.628906 L 228.753906 245.742188 L 234.4375 244.484375 L 237.554688 247.203125 C 237.554688 247.203125 234.675781 234.714844 237.554688 217.402344 L 249.585938 163.214844 L 253.054688 163.214844 L 265.230469 169.671875 L 264.105469 178.667969 C 264.105469 178.667969 270.734375 212.363281 269.789062 226.847656 L 272.625 232.511719 C 272.625 232.511719 272.996094 232.359375 270.789062 234.558594 C 270.789062 234.558594 274.203125 239.128906 270.417969 243.851562 C 270.417969 243.851562 270.359375 270.308594 268.863281 279.539062 L 263.15625 284.996094 C 263.15625 284.996094 242.195312 283.269531 236.898438 283.292969 C 236.898438 283.292969 229.070312 283.324219 225.285156 279.964844 L 219.140625 279.964844 L 214.074219 274.503906 L 210.558594 276.601562 C 210.558594 276.601562 172.582031 253.609375 165.738281 252.105469 " fill-opacity="1" fill-rule="nonzero"/><path fill="#2d2e30" d="M 253.054688 163.214844 L 249.664062 167.957031 L 246.460938 197.441406 L 253.054688 197.441406 L 259.054688 206.0625 L 250.867188 201.28125 L 244.300781 203.171875 L 249.664062 206.0625 L 259.054688 219.910156 L 248.394531 210.46875 L 244.300781 209.84375 L 246.460938 227.792969 L 246.238281 240.703125 L 238.453125 243.003906 L 242.640625 227.792969 L 240.355469 208.269531 L 244.300781 186.738281 L 246.269531 166.695312 C 246.269531 166.695312 248.636719 163.519531 253.054688 163.214844 " fill-opacity="1" fill-rule="nonzero"/><path fill="#fabc87" d="M 248.394531 247.472656 C 248.394531 247.472656 250.570312 249.605469 250.867188 246.804688 C 250.867188 246.804688 250.375 238.652344 244.300781 236.136719 C 244.300781 236.136719 241.597656 237.15625 242.113281 239.445312 L 248.394531 247.472656 " fill-opacity="1" fill-rule="nonzero"/><path fill="#fabc87" d="M 238.933594 241.570312 L 238.933594 239.917969 C 238.933594 239.917969 241.0625 237.945312 242.722656 237.472656 C 242.722656 237.472656 246.746094 240.390625 248.394531 243.773438 C 248.394531 243.773438 249.664062 247.867188 249.664062 249.675781 C 249.664062 249.675781 248.394531 250.542969 246.269531 248.574219 L 238.933594 241.570312 " fill-opacity="1" fill-rule="nonzero"/><path fill="#fabc87" d="M 244.769531 251.648438 C 244.769531 251.648438 246.746094 253.769531 248.394531 252.515625 L 246.589844 246.136719 C 246.589844 246.136719 243.820312 242.359375 241.304688 240.703125 C 241.304688 240.703125 235.820312 240.507812 235.824219 243.382812 L 244.769531 251.648438 " fill-opacity="1" fill-rule="nonzero"/><path fill="#fabc87" d="M 234.4375 244.484375 L 239.203125 250.53125 C 239.203125 250.53125 241.777344 255.582031 246.269531 255.03125 L 244.636719 248.773438 C 244.636719 248.773438 239.378906 239.234375 234.4375 244.484375 " fill-opacity="1" fill-rule="nonzero"/><path fill="#c5855f" d="M 145.515625 96.3125 C 145.515625 96.3125 148.695312 91.363281 150.972656 94.390625 C 150.972656 94.390625 152.773438 99.894531 152.542969 100.742188 C 152.542969 100.742188 151.988281 103.636719 153.722656 104.5 C 153.722656 104.5 155.871094 107.277344 155.144531 109.144531 C 155.144531 109.144531 152.871094 109.144531 152.109375 107.652344 C 152.109375 107.652344 153.957031 107.257812 152.855469 105.445312 C 152.855469 105.445312 149.691406 103.003906 150.40625 99.855469 C 150.40625 99.855469 149.542969 96.234375 148.199219 99.152344 C 148.199219 99.152344 147.410156 98.035156 148.59375 95.765625 C 148.59375 95.765625 146.375 95.449219 145.515625 96.3125 " fill-opacity="1" fill-rule="nonzero"/><path fill="#2d2e30" d="M 117.605469 163.691406 C 117.605469 163.691406 129.976562 175.621094 130.183594 178.773438 L 131.230469 196.839844 L 124.425781 192.625 L 114.195312 191.160156 C 114.195312 191.160156 128.074219 198.085938 130.398438 205.222656 L 119.878906 202.488281 L 110.617188 202.703125 L 123.035156 206.0625 L 132.28125 214.25 L 131.03125 230.734375 L 128.085938 239.445312 L 130.574219 242.652344 L 133.179688 239.910156 L 135.445312 229.40625 L 133.46875 225.207031 L 134.105469 210.453125 C 134.105469 210.453125 134.8125 183.414062 131.65625 172.59375 C 131.65625 172.59375 118.742188 164.167969 117.605469 163.691406 " fill-opacity="1" fill-rule="nonzero"/><path fill="#3e4042" d="M 270.789062 234.558594 C 272.996094 232.359375 272.625 232.511719 272.625 232.511719 L 269.789062 226.847656 C 270.734375 212.363281 264.105469 178.667969 264.105469 178.667969 L 265.230469 169.671875 L 257.859375 165.765625 L 256.003906 176.28125 L 263.996094 200.214844 L 263.996094 224.664062 L 259.054688 224.011719 L 263.996094 232.9375 L 259.054688 230.734375 L 263.996094 240.703125 L 260 240.703125 L 260 268.628906 L 253.902344 275.699219 L 239.203125 272.824219 L 230.335938 275.699219 L 223.101562 271.492188 L 218.332031 271.492188 L 212.546875 266.507812 C 212.546875 266.507812 175.238281 247.394531 164.121094 243.394531 C 163.832031 247.660156 164.023438 251.726562 165.738281 252.105469 C 172.582031 253.609375 210.558594 276.601562 210.558594 276.601562 L 214.074219 274.503906 L 219.140625 279.964844 L 225.285156 279.964844 C 229.070312 283.324219 236.898438 283.292969 236.898438 283.292969 C 242.195312 283.269531 263.15625 284.996094 263.15625 284.996094 L 268.863281 279.539062 C 270.359375 270.308594 270.417969 243.851562 270.417969 243.851562 C 274.203125 239.128906 270.789062 234.558594 270.789062 234.558594 " fill-opacity="1" fill-rule="nonzero"/></svg>